{
  "asset": {
    "version": "2.0",
    "generator": "Sketchup glTF Exporter by Evan Prananta."
  },
  "scene": 0,
  "scenes": [
    {
      "nodes": [
        0
      ]
    }
  ],
  "samplers": [
    {
    }
  ],
  "nodes": [
    {
      "name": "root",
      "mesh": 0
    }
  ],
  "materials": [
    {
      "pbrMetallicRoughness": {
        "baseColorFactor": [
          0.1087,
          0.1734,
          0.0316,
          1.0
        ],
        "metallicFactor": 0.1,
        "roughnessFactor": 0.9
      },
      "name": "Color_F17",
      "doubleSided": true
    },
    {
      "pbrMetallicRoughness": {
        "baseColorFactor": [
          0.1975,
          0.2508,
          0.0697,
          1.0
        ],
        "metallicFactor": 0.1,
        "roughnessFactor": 0.9
      },
      "name": "Color_F09",
      "doubleSided": true
    },
    {
      "pbrMetallicRoughness": {
        "baseColorFactor": [
          0.3686,
          0.3993,
          0.1701,
          1.0
        ],
        "metallicFactor": 0.1,
        "roughnessFactor": 0.9
      },
      "name": "Color_F14",
      "doubleSided": true
    },
    {
      "pbrMetallicRoughness": {
        "baseColorFactor": [
          0.6187,
          0.6592,
          0.4098,
          1.0
        ],
        "metallicFactor": 0.1,
        "roughnessFactor": 0.9
      },
      "name": "Color_B21",
      "doubleSided": true
    },
    {
      "pbrMetallicRoughness": {
        "baseColorFactor": [
          0.7372,
          0.7227,
          0.7012,
          1.0
        ],
        "metallicFactor": 0.1,
        "roughnessFactor": 0.9
      },
      "name": "default_face_material",
      "doubleSided": true
    },
    {
      "pbrMetallicRoughness": {
        "baseColorFactor": [
          0.7818,
          0.7969,
          0.6388,
          1.0
        ],
        "metallicFactor": 0.1,
        "roughnessFactor": 0.9
      },
      "name": "Color_B19",
      "doubleSided": true
    },
    {
      "pbrMetallicRoughness": {
        "baseColorTexture": {
          "index": 0
        },
        "metallicFactor": 0.1,
        "roughnessFactor": 0.9
      },
      "name": "logo_enercon58.png1",
      "doubleSided": true,
      "alphaMode": "OPAQUE"
    },
    {
      "pbrMetallicRoughness": {
        "baseColorTexture": {
          "index": 1
        },
        "metallicFactor": 0.1,
        "roughnessFactor": 0.9
      },
      "name": "logo_enercon58.png",
      "doubleSided": true,
      "alphaMode": "OPAQUE"
    },
    {
      "pbrMetallicRoughness": {
        "baseColorFactor": [
          0.7667,
          0.7667,
          0.7667,
          1.0
        ],
        "metallicFactor": 0.1,
        "roughnessFactor": 0.9
      },
      "name": "Color_1",
      "doubleSided": true
    },
    {
      "pbrMetallicRoughness": {
        "baseColorFactor": [
          0.2158,
          0.2158,
          0.2158,
          1.0
        ],
        "metallicFactor": 0.1,
        "roughnessFactor": 0.9
      },
      "name": "Color_000",
      "doubleSided": true
    },
    {
      "pbrMetallicRoughness": {
        "baseColorFactor": [
          0.2158,
          0.2158,
          0.2158,
          1.0
        ],
        "metallicFactor": 0.1,
        "roughnessFactor": 0.9
      },
      "name": "Color_2",
      "doubleSided": true
    },
    {
      "pbrMetallicRoughness": {
        "baseColorFactor": [
          0.7667,
          0.7667,
          0.7667,
          1.0
        ],
        "metallicFactor": 0.1,
        "roughnessFactor": 0.9
      },
      "name": "Color_001",
      "doubleSided": true
    },
    {
      "pbrMetallicRoughness": {
        "baseColorFactor": [
          0.4045,
          0.4045,
          0.4045,
          1.0
        ],
        "metallicFactor": 0.1,
        "roughnessFactor": 0.9
      },
      "name": "0132_LightGray",
      "doubleSided": true
    }
  ],
  "images": [
    {
      "bufferView": 0,
      "mimeType": "image/png"
    },
    {
      "bufferView": 1,
      "mimeType": "image/png"
    }
  ],
  "textures": [
    {
      "source": 0,
      "sampler": 0
    },
    {
      "source": 1,
      "sampler": 0
    }
  ],
  "meshes": [
    {
      "primitives": [
        {
          "attributes": {
            "POSITION": 0,
            "NORMAL": 1
          },
          "indices": 5,
          "mode": 4,
          "material": 0
        },
        {
          "attributes": {
            "POSITION": 0,
            "NORMAL": 1
          },
          "indices": 6,
          "mode": 4,
          "material": 1
        },
        {
          "attributes": {
            "POSITION": 0,
            "NORMAL": 1
          },
          "indices": 7,
          "mode": 4,
          "material": 2
        },
        {
          "attributes": {
            "POSITION": 0,
            "NORMAL": 1
          },
          "indices": 8,
          "mode": 4,
          "material": 3
        },
        {
          "attributes": {
            "POSITION": 0,
            "NORMAL": 1
          },
          "indices": 9,
          "mode": 4,
          "material": 4
        },
        {
          "attributes": {
            "POSITION": 0,
            "NORMAL": 1
          },
          "indices": 10,
          "mode": 4,
          "material": 5
        },
        {
          "attributes": {
            "POSITION": 2,
            "NORMAL": 3,
            "TEXCOORD_0": 4
          },
          "indices": 11,
          "mode": 4,
          "material": 6
        },
        {
          "attributes": {
            "POSITION": 2,
            "NORMAL": 3,
            "TEXCOORD_0": 4
          },
          "indices": 12,
          "mode": 4,
          "material": 7
        },
        {
          "attributes": {
            "POSITION": 0,
            "NORMAL": 1
          },
          "indices": 13,
          "mode": 4,
          "material": 8
        },
        {
          "attributes": {
            "POSITION": 0,
            "NORMAL": 1
          },
          "indices": 14,
          "mode": 4,
          "material": 9
        },
        {
          "attributes": {
            "POSITION": 0,
            "NORMAL": 1
          },
          "indices": 15,
          "mode": 4,
          "material": 10
        },
        {
          "attributes": {
            "POSITION": 0,
            "NORMAL": 1
          },
          "indices": 16,
          "mode": 4,
          "material": 11
        },
        {
          "attributes": {
            "POSITION": 0,
            "NORMAL": 1
          },
          "indices": 17,
          "mode": 4,
          "material": 12
        }
      ]
    }
  ],
  "accessors": [
    {
      "bufferView": 2,
      "componentType": 5126,
      "count": 2879,
      "type": "VEC3",
      "min": [
        -12.444509225103317,
        -0.2137181189753426,
        -13.016028910892004
      ],
      "max": [
        25.596446012366332,
        94.37206263596673,
        14.543928683034594
      ]
    },
    {
      "bufferView": 3,
      "componentType": 5126,
      "count": 2879,
      "type": "VEC3"
    },
    {
      "bufferView": 4,
      "componentType": 5126,
      "count": 4,
      "type": "VEC3",
      "min": [
        -0.5273740434097519,
        70.57241636978821,
        -3.2078610460240378
      ],
      "max": [
        0.69670947804176,
        70.57870896517792,
        -1.9176184903439408
      ]
    },
    {
      "bufferView": 5,
      "componentType": 5126,
      "count": 4,
      "type": "VEC3"
    },
    {
      "bufferView": 6,
      "componentType": 5126,
      "count": 4,
      "type": "VEC2"
    },
    {
      "bufferView": 7,
      "componentType": 5123,
      "count": 96,
      "type": "SCALAR"
    },
    {
      "bufferView": 7,
      "componentType": 5123,
      "count": 96,
      "type": "SCALAR",
      "byteOffset": 192
    },
    {
      "bufferView": 7,
      "componentType": 5123,
      "count": 96,
      "type": "SCALAR",
      "byteOffset": 384
    },
    {
      "bufferView": 7,
      "componentType": 5123,
      "count": 96,
      "type": "SCALAR",
      "byteOffset": 576
    },
    {
      "bufferView": 7,
      "componentType": 5123,
      "count": 96,
      "type": "SCALAR",
      "byteOffset": 768
    },
    {
      "bufferView": 7,
      "componentType": 5123,
      "count": 96,
      "type": "SCALAR",
      "byteOffset": 960
    },
    {
      "bufferView": 8,
      "componentType": 5123,
      "count": 3,
      "type": "SCALAR"
    },
    {
      "bufferView": 8,
      "componentType": 5123,
      "count": 3,
      "type": "SCALAR",
      "byteOffset": 6
    },
    {
      "bufferView": 7,
      "componentType": 5123,
      "count": 1539,
      "type": "SCALAR",
      "byteOffset": 1152
    },
    {
      "bufferView": 7,
      "componentType": 5123,
      "count": 720,
      "type": "SCALAR",
      "byteOffset": 4230
    },
    {
      "bufferView": 7,
      "componentType": 5123,
      "count": 132,
      "type": "SCALAR",
      "byteOffset": 5670
    },
    {
      "bufferView": 7,
      "componentType": 5123,
      "count": 3402,
      "type": "SCALAR",
      "byteOffset": 5934
    },
    {
      "bufferView": 7,
      "componentType": 5123,
      "count": 1107,
      "type": "SCALAR",
      "byteOffset": 12738
    }
  ],
  "bufferViews": [
    {
      "buffer": 0,
      "byteLength": 2878
    },
    {
      "buffer": 0,
      "byteOffset": 2878,
      "byteLength": 2878
    },
    {
      "buffer": 0,
      "byteOffset": 5760,
      "byteLength": 34548,
      "target": 34962,
      "byteStride": 12
    },
    {
      "buffer": 0,
      "byteOffset": 40308,
      "byteLength": 34548,
      "target": 34962,
      "byteStride": 12
    },
    {
      "buffer": 0,
      "byteOffset": 74856,
      "byteLength": 48,
      "target": 34962,
      "byteStride": 12
    },
    {
      "buffer": 0,
      "byteOffset": 74904,
      "byteLength": 48,
      "target": 34962,
      "byteStride": 12
    },
    {
      "buffer": 0,
      "byteOffset": 74952,
      "byteLength": 32,
      "target": 34962,
      "byteStride": 8
    },
    {
      "buffer": 0,
      "byteOffset": 74984,
      "byteLength": 14952,
      "target": 34963
    },
    {
      "buffer": 0,
      "byteOffset": 89936,
      "byteLength": 12,
      "target": 34963
    }
  ],
  "buffers": [
    {
      "uri": "data:application/octet-stream;base64,",
      "byteLength": 89948
    }
  ]
}