{
  "asset": {
    "version": "2.0",
    "generator": "Sketchup glTF Exporter v1.2.6 by Centaur"
  },
  "scene": 0,
  "scenes": [
    {
      "nodes": [
        0
      ]
    }
  ],
  "samplers": [
    {
    }
  ],
  "nodes": [
    {
      "name": "root",
      "children": [
        1
      ]
    },
    {
      "name": "huset",
      "children": [
        2
      ],
      "mesh": 1
    },
    {
      "name": "Component5",
      "mesh": 0
    }
  ],
  "materials": [
    {
      "pbrMetallicRoughness": {
        "baseColorTexture": {
          "index": 0
        },
        "metallicFactor": 0.1,
        "roughnessFactor": 0.9
      },
      "name": "<auto>6",
      "doubleSided": true
    },
    {
      "pbrMetallicRoughness": {
        "baseColorTexture": {
          "index": 1
        },
        "metallicFactor": 0.1,
        "roughnessFactor": 0.9
      },
      "name": "<auto>11",
      "doubleSided": true
    },
    {
      "pbrMetallicRoughness": {
        "baseColorTexture": {
          "index": 2
        },
        "metallicFactor": 0.1,
        "roughnessFactor": 0.9
      },
      "name": "<auto>8",
      "doubleSided": true
    },
    {
      "pbrMetallicRoughness": {
        "baseColorFactor": [
          1.0,
          1.0,
          1.0,
          1.0
        ],
        "metallicFactor": 0.1,
        "roughnessFactor": 0.9
      },
      "name": "<auto>",
      "doubleSided": true
    },
    {
      "pbrMetallicRoughness": {
        "baseColorTexture": {
          "index": 3
        },
        "metallicFactor": 0.1,
        "roughnessFactor": 0.9
      },
      "name": "Material2",
      "doubleSided": true
    },
    {
      "pbrMetallicRoughness": {
        "baseColorTexture": {
          "index": 4
        },
        "metallicFactor": 0.1,
        "roughnessFactor": 0.9
      },
      "name": "Material1",
      "doubleSided": true
    },
    {
      "pbrMetallicRoughness": {
        "baseColorFactor": [
          0.2176,
          0.2176,
          0.2176,
          1.0
        ],
        "metallicFactor": 0.1,
        "roughnessFactor": 0.9
      },
      "name": "default material",
      "doubleSided": true
    },
    {
      "pbrMetallicRoughness": {
        "baseColorTexture": {
          "index": 5
        },
        "metallicFactor": 0.1,
        "roughnessFactor": 0.9
      },
      "name": "<auto>5",
      "doubleSided": true
    },
    {
      "pbrMetallicRoughness": {
        "baseColorTexture": {
          "index": 6
        },
        "metallicFactor": 0.1,
        "roughnessFactor": 0.9
      },
      "name": "Trä_Golv",
      "doubleSided": true
    },
    {
      "pbrMetallicRoughness": {
        "baseColorFactor": [
          0.8434,
          0.8513,
          0.8913,
          1.0
        ],
        "metallicFactor": 0.1,
        "roughnessFactor": 0.9
      },
      "name": "Material4"
    },
    {
      "pbrMetallicRoughness": {
        "baseColorTexture": {
          "index": 7
        },
        "metallicFactor": 0.1,
        "roughnessFactor": 0.9
      },
      "name": "Genomskinligt glas effekt reflektion av himlen",
      "doubleSided": true,
      "alphaMode": "BLEND"
    },
    {
      "pbrMetallicRoughness": {
        "baseColorTexture": {
          "index": 8
        },
        "metallicFactor": 0.1,
        "roughnessFactor": 0.9
      },
      "name": "[Wood Floor]1",
      "doubleSided": true
    },
    {
      "pbrMetallicRoughness": {
        "baseColorFactor": [
          0.3787,
          0.4479,
          0.4995,
          1.0
        ],
        "metallicFactor": 0.1,
        "roughnessFactor": 0.9
      },
      "name": "<auto>1",
      "doubleSided": true
    },
    {
      "pbrMetallicRoughness": {
        "baseColorTexture": {
          "index": 9
        },
        "metallicFactor": 0.1,
        "roughnessFactor": 0.9
      },
      "name": "<auto>44",
      "doubleSided": true
    },
    {
      "pbrMetallicRoughness": {
        "baseColorTexture": {
          "index": 10
        },
        "metallicFactor": 0.1,
        "roughnessFactor": 0.9
      },
      "name": "<auto>3",
      "doubleSided": true
    },
    {
      "pbrMetallicRoughness": {
        "baseColorTexture": {
          "index": 11
        },
        "metallicFactor": 0.1,
        "roughnessFactor": 0.9
      },
      "name": "<auto>45",
      "doubleSided": true,
      "alphaMode": "BLEND"
    },
    {
      "pbrMetallicRoughness": {
        "baseColorTexture": {
          "index": 12
        },
        "metallicFactor": 0.1,
        "roughnessFactor": 0.9
      },
      "name": "[Translucent Glass Sky Reflection]1",
      "doubleSided": true,
      "alphaMode": "BLEND"
    }
  ],
  "images": [
    {
      "bufferView": 0,
      "mimeType": "image/jpeg"
    },
    {
      "bufferView": 1,
      "mimeType": "image/jpeg"
    },
    {
      "bufferView": 2,
      "mimeType": "image/jpeg"
    },
    {
      "bufferView": 3,
      "mimeType": "image/jpeg"
    },
    {
      "bufferView": 4,
      "mimeType": "image/jpeg"
    },
    {
      "bufferView": 5,
      "mimeType": "image/jpeg"
    },
    {
      "bufferView": 6,
      "mimeType": "image/jpeg"
    },
    {
      "bufferView": 7,
      "mimeType": "image/jpeg"
    },
    {
      "bufferView": 8,
      "mimeType": "image/jpeg"
    },
    {
      "bufferView": 9,
      "mimeType": "image/jpeg"
    },
    {
      "bufferView": 10,
      "mimeType": "image/jpeg"
    },
    {
      "bufferView": 11,
      "mimeType": "image/jpeg"
    },
    {
      "bufferView": 12,
      "mimeType": "image/jpeg"
    }
  ],
  "textures": [
    {
      "source": 0,
      "sampler": 0
    },
    {
      "source": 1,
      "sampler": 0
    },
    {
      "source": 2,
      "sampler": 0
    },
    {
      "source": 3,
      "sampler": 0
    },
    {
      "source": 4,
      "sampler": 0
    },
    {
      "source": 5,
      "sampler": 0
    },
    {
      "source": 6,
      "sampler": 0
    },
    {
      "source": 7,
      "sampler": 0
    },
    {
      "source": 8,
      "sampler": 0
    },
    {
      "source": 9,
      "sampler": 0
    },
    {
      "source": 10,
      "sampler": 0
    },
    {
      "source": 11,
      "sampler": 0
    },
    {
      "source": 12,
      "sampler": 0
    }
  ],
  "meshes": [
    {
      "primitives": [
        {
          "attributes": {
            "POSITION": 2,
            "NORMAL": 3,
            "TEXCOORD_0": 4
          },
          "indices": 5,
          "mode": 4,
          "material": 1
        },
        {
          "attributes": {
            "POSITION": 2,
            "NORMAL": 3,
            "TEXCOORD_0": 4
          },
          "indices": 6,
          "mode": 4,
          "material": 2
        },
        {
          "attributes": {
            "POSITION": 0,
            "NORMAL": 1
          },
          "indices": 7,
          "mode": 4,
          "material": 3
        }
      ]
    },
    {
      "primitives": [
        {
          "attributes": {
            "POSITION": 2,
            "NORMAL": 3,
            "TEXCOORD_0": 4
          },
          "indices": 8,
          "mode": 4,
          "material": 0
        },
        {
          "attributes": {
            "POSITION": 2,
            "NORMAL": 3,
            "TEXCOORD_0": 4
          },
          "indices": 9,
          "mode": 4,
          "material": 4
        },
        {
          "attributes": {
            "POSITION": 2,
            "NORMAL": 3,
            "TEXCOORD_0": 4
          },
          "indices": 10,
          "mode": 4,
          "material": 1
        },
        {
          "attributes": {
            "POSITION": 2,
            "NORMAL": 3,
            "TEXCOORD_0": 4
          },
          "indices": 11,
          "mode": 4,
          "material": 5
        },
        {
          "attributes": {
            "POSITION": 0,
            "NORMAL": 1
          },
          "indices": 12,
          "mode": 4,
          "material": 6
        },
        {
          "attributes": {
            "POSITION": 2,
            "NORMAL": 3,
            "TEXCOORD_0": 4
          },
          "indices": 13,
          "mode": 4,
          "material": 7
        },
        {
          "attributes": {
            "POSITION": 2,
            "NORMAL": 3,
            "TEXCOORD_0": 4
          },
          "indices": 14,
          "mode": 4,
          "material": 8
        },
        {
          "attributes": {
            "POSITION": 0,
            "NORMAL": 1
          },
          "indices": 15,
          "mode": 4,
          "material": 9
        },
        {
          "attributes": {
            "POSITION": 2,
            "NORMAL": 3,
            "TEXCOORD_0": 4
          },
          "indices": 16,
          "mode": 4,
          "material": 10
        },
        {
          "attributes": {
            "POSITION": 0,
            "NORMAL": 1
          },
          "indices": 17,
          "mode": 4,
          "material": 3
        },
        {
          "attributes": {
            "POSITION": 2,
            "NORMAL": 3,
            "TEXCOORD_0": 4
          },
          "indices": 18,
          "mode": 4,
          "material": 11
        },
        {
          "attributes": {
            "POSITION": 0,
            "NORMAL": 1
          },
          "indices": 19,
          "mode": 4,
          "material": 12
        },
        {
          "attributes": {
            "POSITION": 2,
            "NORMAL": 3,
            "TEXCOORD_0": 4
          },
          "indices": 20,
          "mode": 4,
          "material": 13
        },
        {
          "attributes": {
            "POSITION": 2,
            "NORMAL": 3,
            "TEXCOORD_0": 4
          },
          "indices": 21,
          "mode": 4,
          "material": 14
        },
        {
          "attributes": {
            "POSITION": 2,
            "NORMAL": 3,
            "TEXCOORD_0": 4
          },
          "indices": 22,
          "mode": 4,
          "material": 15
        },
        {
          "attributes": {
            "POSITION": 2,
            "NORMAL": 3,
            "TEXCOORD_0": 4
          },
          "indices": 23,
          "mode": 4,
          "material": 2
        },
        {
          "attributes": {
            "POSITION": 2,
            "NORMAL": 3,
            "TEXCOORD_0": 4
          },
          "indices": 24,
          "mode": 4,
          "material": 16
        }
      ]
    }
  ],
  "accessors": [
    {
      "bufferView": 13,
      "componentType": 5126,
      "count": 1588,
      "type": "VEC3",
      "min": [
        -1.9794082901614307,
        -0.5035754335321952,
        -12.793928254932126
      ],
      "max": [
        8.348165034672409,
        2.776320237206803,
        0.7879655984308316
      ]
    },
    {
      "bufferView": 14,
      "componentType": 5126,
      "count": 1588,
      "type": "VEC3",
      "min": [
        -0.9999804889309304,
        -0.9999999999998102,
        -0.9999804889312837
      ],
      "max": [
        0.9999804889309304,
        0.9999999999996185,
        0.9999804889312837
      ]
    },
    {
      "bufferView": 15,
      "componentType": 5126,
      "count": 753,
      "type": "VEC3",
      "min": [
        -1.9821761395992727,
        -0.5035483515696926,
        -13.616714645270703
      ],
      "max": [
        8.800368840375878,
        5.907094345058476,
        1.6107510920266352
      ]
    },
    {
      "bufferView": 16,
      "componentType": 5126,
      "count": 753,
      "type": "VEC3",
      "min": [
        -0.9999803566436722,
        -0.999999999999541,
        -0.9999804049221018
      ],
      "max": [
        0.9999803541672396,
        0.999999999999541,
        0.9999804889312836
      ]
    },
    {
      "bufferView": 17,
      "componentType": 5126,
      "count": 753,
      "type": "VEC2",
      "min": [
        -151.77165840568415,
        -129.71844000000004
      ],
      "max": [
        114.01072678440332,
        28.19238599521217
      ]
    },
    {
      "bufferView": 19,
      "componentType": 5123,
      "count": 9,
      "type": "SCALAR"
    },
    {
      "bufferView": 19,
      "componentType": 5123,
      "count": 72,
      "type": "SCALAR",
      "byteOffset": 18
    },
    {
      "bufferView": 18,
      "componentType": 5123,
      "count": 498,
      "type": "SCALAR"
    },
    {
      "bufferView": 19,
      "componentType": 5123,
      "count": 453,
      "type": "SCALAR",
      "byteOffset": 162
    },
    {
      "bufferView": 19,
      "componentType": 5123,
      "count": 189,
      "type": "SCALAR",
      "byteOffset": 1068
    },
    {
      "bufferView": 19,
      "componentType": 5123,
      "count": 183,
      "type": "SCALAR",
      "byteOffset": 1446
    },
    {
      "bufferView": 19,
      "componentType": 5123,
      "count": 516,
      "type": "SCALAR",
      "byteOffset": 1812
    },
    {
      "bufferView": 18,
      "componentType": 5123,
      "count": 1242,
      "type": "SCALAR",
      "byteOffset": 996
    },
    {
      "bufferView": 19,
      "componentType": 5123,
      "count": 72,
      "type": "SCALAR",
      "byteOffset": 2844
    },
    {
      "bufferView": 19,
      "componentType": 5123,
      "count": 51,
      "type": "SCALAR",
      "byteOffset": 2988
    },
    {
      "bufferView": 18,
      "componentType": 5123,
      "count": 351,
      "type": "SCALAR",
      "byteOffset": 3480
    },
    {
      "bufferView": 19,
      "componentType": 5123,
      "count": 72,
      "type": "SCALAR",
      "byteOffset": 3090
    },
    {
      "bufferView": 18,
      "componentType": 5123,
      "count": 1050,
      "type": "SCALAR",
      "byteOffset": 4182
    },
    {
      "bufferView": 19,
      "componentType": 5123,
      "count": 24,
      "type": "SCALAR",
      "byteOffset": 3234
    },
    {
      "bufferView": 18,
      "componentType": 5123,
      "count": 63,
      "type": "SCALAR",
      "byteOffset": 6282
    },
    {
      "bufferView": 19,
      "componentType": 5123,
      "count": 3,
      "type": "SCALAR",
      "byteOffset": 3282
    },
    {
      "bufferView": 19,
      "componentType": 5123,
      "count": 6,
      "type": "SCALAR",
      "byteOffset": 3288
    },
    {
      "bufferView": 19,
      "componentType": 5123,
      "count": 6,
      "type": "SCALAR",
      "byteOffset": 3300
    },
    {
      "bufferView": 19,
      "componentType": 5123,
      "count": 12,
      "type": "SCALAR",
      "byteOffset": 3312
    },
    {
      "bufferView": 19,
      "componentType": 5123,
      "count": 12,
      "type": "SCALAR",
      "byteOffset": 3336
    }
  ],
  "bufferViews": [
    {
      "buffer": 0,
      "byteLength": 16582
    },
    {
      "buffer": 0,
      "byteOffset": 16582,
      "byteLength": 16582
    },
    {
      "buffer": 0,
      "byteOffset": 33164,
      "byteLength": 57645
    },
    {
      "buffer": 0,
      "byteOffset": 90809,
      "byteLength": 15874
    },
    {
      "buffer": 0,
      "byteOffset": 106683,
      "byteLength": 14910
    },
    {
      "buffer": 0,
      "byteOffset": 121593,
      "byteLength": 6577
    },
    {
      "buffer": 0,
      "byteOffset": 128170,
      "byteLength": 6574
    },
    {
      "buffer": 0,
      "byteOffset": 134744,
      "byteLength": 2757
    },
    {
      "buffer": 0,
      "byteOffset": 137501,
      "byteLength": 6574
    },
    {
      "buffer": 0,
      "byteOffset": 144075,
      "byteLength": 34609
    },
    {
      "buffer": 0,
      "byteOffset": 178684,
      "byteLength": 34609
    },
    {
      "buffer": 0,
      "byteOffset": 213293,
      "byteLength": 2751
    },
    {
      "buffer": 0,
      "byteOffset": 216044,
      "byteLength": 2757
    },
    {
      "buffer": 0,
      "byteOffset": 218808,
      "byteLength": 19056,
      "target": 34962,
      "byteStride": 12
    },
    {
      "buffer": 0,
      "byteOffset": 237864,
      "byteLength": 19056,
      "target": 34962,
      "byteStride": 12
    },
    {
      "buffer": 0,
      "byteOffset": 256920,
      "byteLength": 9036,
      "target": 34962,
      "byteStride": 12
    },
    {
      "buffer": 0,
      "byteOffset": 265956,
      "byteLength": 9036,
      "target": 34962,
      "byteStride": 12
    },
    {
      "buffer": 0,
      "byteOffset": 274992,
      "byteLength": 6024,
      "target": 34962,
      "byteStride": 8
    },
    {
      "buffer": 0,
      "byteOffset": 281016,
      "byteLength": 6408,
      "target": 34963
    },
    {
      "buffer": 0,
      "byteOffset": 287424,
      "byteLength": 3360,
      "target": 34963
    }
  ],
  "buffers": [
    {
      "uri": "data:application/octet-stream;base64,",
      "byteLength": 290784
    }
  ]
}