{
  "asset": {
    "version": "2.0",
    "generator": "Sketchup glTF Exporter by Evan Prananta."
  },
  "scene": 0,
  "scenes": [
    {
      "nodes": [
        0
      ]
    }
  ],
  "samplers": [
    {
    }
  ],
  "nodes": [
    {
      "name": "root",
      "mesh": 0
    }
  ],
  "materials": [
    {
      "pbrMetallicRoughness": {
        "baseColorTexture": {
          "index": 0
        },
        "metallicFactor": 0.1,
        "roughnessFactor": 0.9
      },
      "name": "Vegetation_Bark_Ponderosa",
      "doubleSided": true,
      "alphaMode": "OPAQUE"
    },
    {
      "pbrMetallicRoughness": {
        "baseColorTexture": {
          "index": 1
        },
        "metallicFactor": 0.1,
        "roughnessFactor": 0.9
      },
      "name": "Material1",
      "doubleSided": true,
      "alphaMode": "OPAQUE"
    }
  ],
  "images": [
    {
      "bufferView": 0,
      "mimeType": "image/png"
    },
    {
      "bufferView": 1,
      "mimeType": "image/png"
    }
  ],
  "textures": [
    {
      "source": 0,
      "sampler": 0
    },
    {
      "source": 1,
      "sampler": 0
    }
  ],
  "meshes": [
    {
      "primitives": [
        {
          "attributes": {
            "POSITION": 0,
            "NORMAL": 1,
            "TEXCOORD_0": 2
          },
          "indices": 3,
          "mode": 4,
          "material": 0
        },
        {
          "attributes": {
            "POSITION": 0,
            "NORMAL": 1,
            "TEXCOORD_0": 2
          },
          "indices": 4,
          "mode": 4,
          "material": 1
        }
      ]
    }
  ],
  "accessors": [
    {
      "bufferView": 2,
      "componentType": 5126,
      "count": 26913,
      "type": "VEC3",
      "min": [
        -4.029457480541269,
        3.6917281104516056e-15,
        -2.9977991247402147
      ],
      "max": [
        2.581061251408935,
        6.3619079700608046,
        3.736608857614308
      ]
    },
    {
      "bufferView": 3,
      "componentType": 5126,
      "count": 26913,
      "type": "VEC3"
    },
    {
      "bufferView": 4,
      "componentType": 5126,
      "count": 26913,
      "type": "VEC2"
    },
    {
      "bufferView": 5,
      "componentType": 5123,
      "count": 3897,
      "type": "SCALAR"
    },
    {
      "bufferView": 5,
      "componentType": 5123,
      "count": 65856,
      "type": "SCALAR",
      "byteOffset": 7794
    }
  ],
  "bufferViews": [
    {
      "buffer": 0,
      "byteLength": 19048
    },
    {
      "buffer": 0,
      "byteOffset": 19048,
      "byteLength": 26004
    },
    {
      "buffer": 0,
      "byteOffset": 45060,
      "byteLength": 322956,
      "target": 34962,
      "byteStride": 12
    },
    {
      "buffer": 0,
      "byteOffset": 368016,
      "byteLength": 322956,
      "target": 34962,
      "byteStride": 12
    },
    {
      "buffer": 0,
      "byteOffset": 690976,
      "byteLength": 215304,
      "target": 34962,
      "byteStride": 8
    },
    {
      "buffer": 0,
      "byteOffset": 906280,
      "byteLength": 139506,
      "target": 34963
    }
  ],
  "buffers": [
    {
      "uri": "data:application/octet-stream;base64,",
      "byteLength": 1045786
    }
  ]
}